<svg id="Layer_1" data-name="Layer 1" xmlns="http://www.w3.org/2000/svg" viewBox="0 0 453.87 100"><title>nesbru-videregående-skole</title><path d="M.81,1.9l0,40.62C.88,61.7,16.1,85.32,40.37,99,64.65,85.32,79.87,61.7,79.89,42.52l0-40.62Z" fill="#fff"/><path d="M0,.91.05,42.36C.07,61.93,15.6,86,40.37,100,65.14,86,80.67,61.93,80.7,42.36l0-41.45ZM40.37,81.65c-7.51,0-13.59-1.44-13.59-2s6.08-2,13.59-2S54,79.19,54,79.7,47.88,81.65,40.37,81.65Zm0-10.43c-11.53,0-20.89-2.1-20.89-3s9.36-3,20.89-3,20.89,2.1,20.89,3S51.91,71.22,40.37,71.22Zm0-12.13c-14.16,0-25.64-2.59-25.64-3.67s11.48-3.67,25.64-3.67S66,54.34,66,55.42,54.54,59.09,40.37,59.09ZM67,43.45c-3.13.63-14.83,1.6-26.64,1.6s-23.61-1-26.63-1.6c-.2,0-.36-.16-.29-.35A76.82,76.82,0,0,1,40,8.36a.63.63,0,0,1,.74,0A76.75,76.75,0,0,1,67.3,43.1C67.37,43.29,67.21,43.41,67,43.45ZM154.93.93V55.42h-3.5L119.75,24.29V55.42h-12V.93h3.42L142.94,33V.93Zm25.9,10.59v12.3h21.56v9.26l-21.56.08V44.84h22.81V55.42h-34.8V.93h34.8V11.52ZM214.71,52.7l-2-11.29.24-.15a44.24,44.24,0,0,0,19,4.9c6.54,0,11-2.18,11-5.92,0-2.8-1.95-4.36-5.06-5.44l-14.09-3.9c-7.79-2.64-10.59-8.64-10.59-14.47C213.23,6,221.87,0,234.48,0c6.38,0,13.62,1.56,17,3.58V14.4c-4.2-2.88-11.21-4.36-16.58-4.36-7.16,0-9.65,2.65-9.65,6.31,0,1.79.62,4.36,4.82,5.76l13.55,4.05c7,2,11.29,6.92,11.29,13.85,0,10.35-9.34,16.35-22.34,16.35A52.11,52.11,0,0,1,214.71,52.7Zm92.88-11.52c0,8.17-6.85,14.24-17,14.24H265V.93h22.42C299.49.93,306,7.47,306,15.8a12.57,12.57,0,0,1-9.65,12.07A13.51,13.51,0,0,1,307.59,41.18ZM285.41,10.67h-8.57V24.52h8c5.92,0,9.42-2.72,9.42-6.85C294.28,13.23,291.17,10.67,285.41,10.67Zm10.27,28.8c0-3.9-3.43-6.93-8.56-6.93H276.84V45.69h10.28C292.25,45.69,295.68,43.36,295.68,39.47ZM363,54.26l-.63,1.16H349.79l-16-18.21H329.4V55.42H318V.93h19.7c13,0,21.64,7.24,21.64,18,0,7.86-4.91,14.32-12.92,17ZM329.4,28.18h6.93c7.16.08,11.36-3.74,11.36-8.72S343.49,11,336.33,11H329.4ZM369,30.9V.93h12V31.29c0,8.64,4.52,14.17,12,14.17s11.83-5.61,11.83-14.32V.93h12v30c0,15.73-9.73,25.46-24,25.46S369,46.63,369,30.9Z" fill="#231f20"/><path d="M128.62,74.48h4.63V95.55h-4.63Z" fill="#231f20"/><path d="M158.23,85c0,6.29-4.3,10.53-10.56,10.53h-8.88V74.48h8.88C154.08,74.48,158.23,78.76,158.23,85Zm-4.72,0c0-3.85-2.41-6.44-6-6.44h-4.07V91.46h4.07C151.16,91.46,153.51,88.84,153.51,85Z" fill="#231f20"/><path d="M166.91,78.58v4.75h8.34v3.59l-8.34,0v4.51h8.82v4.09H162.27V74.48h13.46v4.1Z" fill="#231f20"/><path d="M197.91,95.1l-.24.45h-4.85l-6.17-7h-1.72v7h-4.42V74.48h7.62c5,0,8.36,2.8,8.36,7a6.83,6.83,0,0,1-5,6.56ZM184.93,85h2.69c2.77,0,4.39-1.45,4.39-3.37s-1.62-3.28-4.39-3.28h-2.69Z" fill="#231f20"/><path d="M206,78.58v4.75h8.33v3.59L206,87v4.51h8.81v4.09H201.33V74.48h13.45v4.1Z" fill="#231f20"/><path d="M240.12,84v1a10.62,10.62,0,0,1-10.69,10.9c-6.29,0-11.37-4.43-11.37-10.84s5.11-11,11.46-11a12.57,12.57,0,0,1,8.28,2.95l-2.23,3.35-.2.06a8.84,8.84,0,0,0-5.85-2.14,6.77,6.77,0,0,0-.06,13.54,5.83,5.83,0,0,0,5.78-4.3H229.4V84Z" fill="#231f20"/><path d="M256.87,91.49H246.79L245,95.55h-4.7l9.3-20.22a3.52,3.52,0,0,1-1.53-2.89,3.75,3.75,0,0,1,7.49,0A3.53,3.53,0,0,1,254,75.36l9.33,20.19h-4.7Zm-1.66-3.76-3.4-7.68-3.37,7.68Zm-5.12-15.29a1.65,1.65,0,0,0,1.75,1.62,1.64,1.64,0,0,0,1.71-1.62,1.66,1.66,0,0,0-1.71-1.63A1.67,1.67,0,0,0,250.09,72.44Z" fill="#231f20"/><path d="M270.45,78.58v4.75h8.34v3.59l-8.34,0v4.51h8.82v4.09H265.81V74.48h13.46v4.1Z" fill="#231f20"/><path d="M302.29,74.48V95.55h-1.36l-12.24-12v12h-4.64V74.48h1.33l12.27,12.41V74.48Z" fill="#231f20"/><path d="M327.27,85c0,6.29-4.31,10.53-10.57,10.53h-8.88V74.48h8.88C323.11,74.48,327.27,78.76,327.27,85Zm-4.73,0c0-3.85-2.41-6.44-6-6.44h-4.06V91.46h4.06C320.19,91.46,322.54,88.84,322.54,85Z" fill="#231f20"/><path d="M336,78.58v4.75h8.33v3.59L336,87v4.51h8.81v4.09H331.31V74.48h13.45v4.1Z" fill="#231f20"/><path d="M358.19,94.5l-.75-4.36.09-.06A17.1,17.1,0,0,0,364.87,92c2.53,0,4.25-.84,4.25-2.28,0-1.09-.76-1.69-2-2.11l-5.44-1.51a5.63,5.63,0,0,1-4.1-5.59c0-4,3.34-6.36,8.21-6.36a15,15,0,0,1,6.57,1.39v4.18A12.52,12.52,0,0,0,366,78c-2.77,0-3.74,1-3.74,2.44,0,.69.24,1.68,1.87,2.22l5.24,1.57c2.71.78,4.36,2.68,4.36,5.36,0,4-3.61,6.32-8.64,6.32A20.23,20.23,0,0,1,358.19,94.5Z" fill="#231f20"/><path d="M396.31,95.1l-.25.45h-4.6l-5.63-8.21a19.53,19.53,0,0,1-3.1.66l-.48.06v7.49h-4.63V74.48h4.63v9.64l.15,0c4.4-1,7.37-3.74,7.37-8.22V74.48h4.73v1.6a10.91,10.91,0,0,1-4.67,9.33Z" fill="#231f20"/><path d="M397.55,85a10.84,10.84,0,0,1,11.2-10.9c6.41,0,11.2,4.64,11.2,10.9a10.84,10.84,0,0,1-11.2,10.9C402.34,95.92,397.55,91.28,397.55,85Zm17.67,0a6.49,6.49,0,0,0-6.47-6.74A6.75,6.75,0,1,0,415.22,85Z" fill="#231f20"/><path d="M437.11,91.34v4.21H424V74.48h4.63V91.34Z" fill="#231f20"/><path d="M445.06,78.58v4.75h8.33v3.59l-8.33,0v4.51h8.81v4.09H440.42V74.48h13.45v4.1Z" fill="#231f20"/><polygon points="125.7 74.48 125.7 74.84 117.1 95.56 113.31 95.56 104.8 74.84 104.8 74.48 109.56 74.48 115.27 89.89 120.89 74.48 125.7 74.48" fill="#231f20"/></svg>